<?xml version="1.0" encoding="UTF-8" standalone="no"?>
<!-- Created with Inkscape (http://www.inkscape.org/) -->

<svg
   width="133"
   height="136"
   viewBox="0 0 35.189583 35.983335"
   version="1.1"
   id="svg9033"
   sodipodi:docname="logodesign4-5.svg"
   inkscape:version="1.1 (c68e22c387, 2021-05-23)"
   xmlns:inkscape="http://www.inkscape.org/namespaces/inkscape"
   xmlns:sodipodi="http://sodipodi.sourceforge.net/DTD/sodipodi-0.dtd"
   xmlns="http://www.w3.org/2000/svg"
   xmlns:svg="http://www.w3.org/2000/svg">
  <sodipodi:namedview
     id="namedview9035"
     pagecolor="#000000"
     bordercolor="#666666"
     borderopacity="1.0"
     inkscape:pageshadow="2"
     inkscape:pageopacity="0"
     inkscape:pagecheckerboard="true"
     inkscape:document-units="mm"
     showgrid="false"
     units="px"
     inkscape:zoom="2.6021529"
     inkscape:cx="27.09295"
     inkscape:cy="71.287124"
     inkscape:window-width="1920"
     inkscape:window-height="1017"
     inkscape:window-x="1432"
     inkscape:window-y="-8"
     inkscape:window-maximized="1"
     inkscape:current-layer="layer5"
     inkscape:snap-object-midpoints="false"
     inkscape:object-nodes="false"
     inkscape:snap-midpoints="true"
     inkscape:object-paths="true" />
  <defs
     id="defs9030">
    <linearGradient
       id="linearGradient10589"
       inkscape:swatch="solid">
      <stop
         style="stop-color:#000000;stop-opacity:1;"
         offset="0"
         id="stop10587" />
    </linearGradient>
    <inkscape:path-effect
       effect="fillet_chamfer"
       id="path-effect8440"
       is_visible="true"
       lpeversion="1"
       satellites_param="F,0,0,1,0,2.5,0,1 @ F,0,0,1,0,2.5,0,1 @ F,0,0,1,0,2.5,0,1 @ F,0,0,1,0,2.5,0,1"
       unit="px"
       method="auto"
       mode="F"
       radius="0"
       chamfer_steps="1"
       flexible="false"
       use_knot_distance="true"
       apply_no_radius="true"
       apply_with_radius="true"
       only_selected="false"
       hide_knots="false" />
    <inkscape:path-effect
       effect="fillet_chamfer"
       id="path-effect8444"
       is_visible="true"
       lpeversion="1"
       satellites_param="F,0,0,1,0,1.5,0,1 @ F,0,1,1,0,1.5,0,1 @ F,0,0,1,0,1.5,0,1"
       unit="px"
       method="auto"
       mode="F"
       radius="0"
       chamfer_steps="1"
       flexible="false"
       use_knot_distance="true"
       apply_no_radius="true"
       apply_with_radius="true"
       only_selected="false"
       hide_knots="false" />
  </defs>
  <g
     inkscape:groupmode="layer"
     id="layer2"
     inkscape:label="Layer 2">
    <path
       style="display:inline;fill:#ffe28e;fill-opacity:1;stroke:none;stroke-width:0.264583px;stroke-linecap:butt;stroke-linejoin:miter;stroke-opacity:1"
       d="M 3.5977255,12.572062 C 1.6320035,11.468577 1.0306425,5.9341564 5.7187395,6.0077538 5.1699445,3.9897075 8.4048695,1.550451 10.79216,3.3136161 c 1.197477,-0.5982167 1.889888,-0.3306074 2.629268,-0.1435143 1.555072,-3.89596813 5.396051,-2.96825073 6.261508,0.3308988 1.007749,-0.2509113 1.981622,-0.027569 2.921585,0.6705198 2.743205,-3.66844553 5.964971,-1.2612387 6.151428,1.8167778 5.441769,-0.4201541 4.150741,4.9877898 2.294753,6.3540408 -9.61345,2.314981 -18.602034,3.442923 -27.4529765,0.229723 z"
       id="path10644"
       sodipodi:nodetypes="ccccccccc" />
  </g>
  <g
     inkscape:label="Layer 1"
     inkscape:groupmode="layer"
     id="layer1"
     style="display:inline">
    <path
       style="fill:none;fill-opacity:1;fill-rule:nonzero;stroke:#e8cb77;stroke-width:1.32292;stroke-linecap:round;stroke-linejoin:round;stroke-miterlimit:4;stroke-dasharray:none;stroke-opacity:1"
       id="path12917-35"
       sodipodi:type="arc"
       sodipodi:cx="5.1985145"
       sodipodi:cy="9.2003412"
       sodipodi:rx="3.175"
       sodipodi:ry="3.175"
       sodipodi:start="2.0979157"
       sodipodi:end="5.1870063"
       sodipodi:arc-type="arc"
       d="M 3.601344,11.944366 A 3.175,3.175 0 0 1 2.4135127,7.6757462 3.175,3.175 0 0 1 6.6494834,6.3762814"
       sodipodi:open="true" />
    <path
       style="fill:none;fill-opacity:1;stroke:#e8cb77;stroke-width:1.32292;stroke-linecap:round;stroke-linejoin:round;stroke-miterlimit:4;stroke-dasharray:none;stroke-opacity:1"
       id="path12917-1-54"
       sodipodi:type="arc"
       sodipodi:cx="8.8901024"
       sodipodi:cy="5.8558211"
       sodipodi:rx="3.175"
       sodipodi:ry="3.175"
       sodipodi:start="3.0937216"
       sodipodi:end="5.3547316"
       sodipodi:arc-type="arc"
       sodipodi:open="true"
       d="M 5.7187397,6.0077537 A 3.175,3.175 0 0 1 7.4010157,3.0516732 3.175,3.175 0 0 1 10.792159,3.313616" />
    <path
       style="fill:none;fill-opacity:1;stroke:#e8cb77;stroke-width:1.32292;stroke-linecap:round;stroke-linejoin:round;stroke-miterlimit:4;stroke-dasharray:none;stroke-opacity:1"
       id="path12917-3-1"
       sodipodi:type="arc"
       sodipodi:cx="29.777586"
       sodipodi:cy="9.0741282"
       sodipodi:rx="3.175"
       sodipodi:ry="3.175"
       sodipodi:start="3.9272007"
       sodipodi:end="1.056915"
       sodipodi:arc-type="arc"
       sodipodi:open="true"
       d="m 27.532993,6.828593 a 3.175,3.175 0 0 1 3.340582,-0.7343025 3.175,3.175 0 0 1 2.068673,2.7238356 3.175,3.175 0 0 1 -1.603956,3.0209289" />
    <path
       style="fill:none;fill-opacity:1;stroke:#e8cb77;stroke-width:1.32292;stroke-linecap:round;stroke-linejoin:round;stroke-miterlimit:4;stroke-dasharray:none;stroke-opacity:1"
       id="path12917-38-69"
       sodipodi:type="arc"
       sodipodi:cx="25.612715"
       sodipodi:cy="5.5402999"
       sodipodi:rx="3.175"
       sodipodi:ry="3.175"
       sodipodi:start="3.0526297"
       sodipodi:end="0.14157425"
       sodipodi:arc-type="arc"
       sodipodi:open="true"
       d="m 22.450271,5.8223848 a 3.175,3.175 0 0 1 1.541743,-3.0122781 3.175,3.175 0 0 1 3.382732,0.089005 3.175,3.175 0 0 1 1.381203,3.0891859" />
    <path
       style="fill:none;fill-opacity:1;stroke:#e8cb77;stroke-width:1.32292;stroke-linecap:round;stroke-linejoin:round;stroke-miterlimit:4;stroke-dasharray:none;stroke-opacity:1"
       id="path12917-9-78"
       sodipodi:type="arc"
       sodipodi:cx="20.50128"
       sodipodi:cy="6.5499663"
       sodipodi:rx="3.175"
       sodipodi:ry="3.175"
       sodipodi:start="4.1456538"
       sodipodi:end="5.4364574"
       sodipodi:arc-type="arc"
       sodipodi:open="true"
       d="m 18.796684,3.8713513 a 3.175,3.175 0 0 1 3.807836,0.300169" />
    <path
       style="fill:none;fill-opacity:1;stroke:#e8cb77;stroke-width:1.32292;stroke-linecap:round;stroke-linejoin:round;stroke-miterlimit:4;stroke-dasharray:none;stroke-opacity:1"
       id="path12917-0-8"
       sodipodi:type="arc"
       sodipodi:cx="16.525709"
       sodipodi:cy="3.8364801"
       sodipodi:rx="3.175"
       sodipodi:ry="3.175"
       sodipodi:start="3.3530479"
       sodipodi:end="6.1773248"
       sodipodi:arc-type="arc"
       sodipodi:open="true"
       d="M 13.421428,3.1701018 A 3.175,3.175 0 0 1 16.693263,0.66590442 3.175,3.175 0 0 1 19.682935,3.5010004" />
    <path
       style="fill:none;fill-opacity:1;stroke:#e8cb77;stroke-width:1.32292;stroke-linecap:round;stroke-linejoin:round;stroke-miterlimit:4;stroke-dasharray:none;stroke-opacity:1"
       id="path12917-8-9"
       sodipodi:type="arc"
       sodipodi:cx="12.073009"
       sodipodi:cy="6.6149001"
       sodipodi:rx="3.175"
       sodipodi:ry="3.175"
       sodipodi:start="3.9428429"
       sodipodi:end="5.5513093"
       sodipodi:arc-type="arc"
       sodipodi:open="true"
       d="M 9.8638141,4.3345307 A 3.175,3.175 0 0 1 12.183118,3.44181 3.175,3.175 0 0 1 14.434961,4.4931543" />
    <path
       style="fill:none;fill-opacity:1;stroke:#e8cb77;stroke-width:1.32292;stroke-linecap:round;stroke-linejoin:round;stroke-miterlimit:4;stroke-dasharray:none;stroke-opacity:1"
       id="path13534-37"
       sodipodi:type="arc"
       sodipodi:cx="13.600231"
       sodipodi:cy="10.258569"
       sodipodi:rx="3.175"
       sodipodi:ry="3.175"
       sodipodi:start="3.5928191"
       sodipodi:end="5.2224536"
       sodipodi:arc-type="arc"
       sodipodi:open="true"
       d="M 10.743008,8.8740479 A 3.175,3.175 0 0 1 12.64755,7.229869 3.175,3.175 0 0 1 15.150373,7.4877052" />
    <path
       style="fill:none;fill-opacity:1;stroke:#e8cb77;stroke-width:1.32292;stroke-linecap:round;stroke-linejoin:round;stroke-miterlimit:4;stroke-dasharray:none;stroke-opacity:1"
       id="path13534-3-60"
       sodipodi:type="arc"
       sodipodi:cx="21.515944"
       sodipodi:cy="11.004846"
       sodipodi:rx="3.175"
       sodipodi:ry="3.175"
       sodipodi:start="4.1117436"
       sodipodi:end="5.628603"
       sodipodi:arc-type="arc"
       sodipodi:open="true"
       d="m 19.721513,8.3855626 a 3.175,3.175 0 0 1 4.313165,0.6862543" />
  </g>
  <g
     inkscape:groupmode="layer"
     id="layer5"
     inkscape:label="Layer 3"
     style="display:inline">
    <path
       id="path10502-4"
       style="display:inline;fill:#ffffff;fill-opacity:1;fill-rule:evenodd;stroke:#af1c1c;stroke-width:3.96083;stroke-linecap:butt;stroke-linejoin:miter;stroke-miterlimit:4;stroke-dasharray:none;stroke-opacity:1"
       d="M 8.0957031 46.826172 C 4.0550143 46.875667 1.6993753 49.915584 2.671875 54.376953 L 16.744141 118.92969 C 17.855569 124.02839 22.864114 129.18657 27.986328 130.18164 C 53.172173 135.07434 78.453884 134.95035 104.01367 130.11328 C 109.14073 129.14301 114.16006 124.02839 115.27148 118.92969 L 129.3418 54.376953 C 130.45322 49.278246 127.21955 46.04053 122.08984 46.998047 C 81.876268 54.504328 47.08176 53.921305 9.9257812 46.992188 C 9.2845476 46.872606 8.6729444 46.819101 8.0957031 46.826172 z M 48.033203 65.195312 A 3.5158458 3.5158458 0 0 1 49.404297 65.556641 L 92.121094 86.771484 A 2.8739155 2.8739155 0 0 1 92.164062 91.896484 L 49.341797 114.04883 A 3.4487393 3.4487393 0 0 1 44.308594 110.98438 L 44.324219 68.703125 A 3.5158458 3.5158458 0 0 1 48.033203 65.195312 z "
       transform="scale(0.26458333)" />
    <path
       style="fill:none;stroke:#af1c1c;stroke-width:1.32292;stroke-linecap:butt;stroke-linejoin:miter;stroke-miterlimit:4;stroke-dasharray:none;stroke-opacity:1"
       d="M 6.9573345,13.063885 9.9213087,34.797759"
       id="path44116" />
    <path
       style="display:inline;fill:none;stroke:#af1c1c;stroke-width:1.32292;stroke-linecap:butt;stroke-linejoin:miter;stroke-miterlimit:4;stroke-dasharray:none;stroke-opacity:1"
       d="m 13.472724,14.009649 0.148249,3.580917 m 0.501114,12.104267 0.229579,5.545406"
       id="path44116-8"
       sodipodi:nodetypes="cccc" />
    <path
       style="display:inline;fill:none;stroke:#af1c1c;stroke-width:1.32292;stroke-linecap:butt;stroke-linejoin:miter;stroke-miterlimit:4;stroke-dasharray:none;stroke-opacity:1"
       d="m 20.570812,13.829904 -0.298697,7.214938 m -0.223068,5.388151 -0.357177,8.627501"
       id="path44116-8-4"
       sodipodi:nodetypes="cccc" />
    <path
       style="display:inline;fill:none;stroke:#af1c1c;stroke-width:1.32292;stroke-linecap:butt;stroke-linejoin:miter;stroke-miterlimit:4;stroke-dasharray:none;stroke-opacity:1"
       d="M 27.605211,13.137631 24.641236,34.871505"
       id="path44116-4" />
  </g>
  <g
     inkscape:groupmode="layer"
     id="layer6"
     inkscape:label="Layer 4" />
</svg>
